<mxfile host="app.diagrams.net" modified="2024-04-17T11:53:04.996Z" agent="Mozilla/5.0 (Windows NT 10.0; Win64; x64) AppleWebKit/537.36 (KHTML, like Gecko) Chrome/123.0.0.0 Safari/537.36" etag="wHfXEz-us_nAEz3yq2S7" version="24.0.5" type="device">
  <diagram id="R2lEEEUBdFMjLlhIrx00" name="Page-1">
    <mxGraphModel dx="3421" dy="1551" grid="0" gridSize="10" guides="1" tooltips="1" connect="1" arrows="1" fold="1" page="0" pageScale="1" pageWidth="850" pageHeight="1100" background="#000000" math="0" shadow="0" extFonts="Permanent Marker^https://fonts.googleapis.com/css?family=Permanent+Marker">
      <root>
        <mxCell id="0" />
        <mxCell id="1" parent="0" />
        <mxCell id="Bi1fVH9bBWvj0MdAsN5d-1" value="&lt;font style=&quot;font-size: 14px;&quot;&gt;Customer_Name&lt;/font&gt;" style="ellipse;whiteSpace=wrap;html=1;strokeColor=#FFFFFF;" parent="1" vertex="1">
          <mxGeometry x="-658" y="-181" width="120" height="80" as="geometry" />
        </mxCell>
        <mxCell id="Bi1fVH9bBWvj0MdAsN5d-12" value="" style="edgeStyle=orthogonalEdgeStyle;rounded=0;orthogonalLoop=1;jettySize=auto;html=1;strokeColor=#FFFFFF;" parent="1" source="Bi1fVH9bBWvj0MdAsN5d-2" target="Bi1fVH9bBWvj0MdAsN5d-11" edge="1">
          <mxGeometry relative="1" as="geometry" />
        </mxCell>
        <mxCell id="2LKeGOVi453FV_1qw3CK-14" style="edgeStyle=orthogonalEdgeStyle;rounded=0;orthogonalLoop=1;jettySize=auto;html=1;entryX=1;entryY=0.5;entryDx=0;entryDy=0;strokeColor=#FFFFFF;" edge="1" parent="1" source="Bi1fVH9bBWvj0MdAsN5d-2" target="Bi1fVH9bBWvj0MdAsN5d-4">
          <mxGeometry relative="1" as="geometry" />
        </mxCell>
        <mxCell id="2LKeGOVi453FV_1qw3CK-15" style="edgeStyle=orthogonalEdgeStyle;rounded=0;orthogonalLoop=1;jettySize=auto;html=1;entryX=0;entryY=0.5;entryDx=0;entryDy=0;strokeColor=#FFFFFF;" edge="1" parent="1" source="Bi1fVH9bBWvj0MdAsN5d-2" target="Bi1fVH9bBWvj0MdAsN5d-10">
          <mxGeometry relative="1" as="geometry" />
        </mxCell>
        <mxCell id="2LKeGOVi453FV_1qw3CK-17" style="edgeStyle=orthogonalEdgeStyle;rounded=0;orthogonalLoop=1;jettySize=auto;html=1;entryX=0;entryY=0.5;entryDx=0;entryDy=0;strokeColor=#FFFFFF;" edge="1" parent="1" source="Bi1fVH9bBWvj0MdAsN5d-2" target="Bi1fVH9bBWvj0MdAsN5d-1">
          <mxGeometry relative="1" as="geometry" />
        </mxCell>
        <mxCell id="2LKeGOVi453FV_1qw3CK-34" style="edgeStyle=orthogonalEdgeStyle;rounded=0;orthogonalLoop=1;jettySize=auto;html=1;entryX=1;entryY=0.5;entryDx=0;entryDy=0;strokeColor=#FFFFFF;" edge="1" parent="1" source="Bi1fVH9bBWvj0MdAsN5d-2" target="Bi1fVH9bBWvj0MdAsN5d-8">
          <mxGeometry relative="1" as="geometry" />
        </mxCell>
        <object label="&lt;font style=&quot;font-size: 21px;&quot;&gt;CUSTOMER&lt;/font&gt;" CUSTOMER="CUSTOmER" id="Bi1fVH9bBWvj0MdAsN5d-2">
          <mxCell style="rounded=0;whiteSpace=wrap;html=1;strokeColor=#FFFFFF;" parent="1" vertex="1">
            <mxGeometry x="-823" width="170" height="70" as="geometry" />
          </mxCell>
        </object>
        <mxCell id="Bi1fVH9bBWvj0MdAsN5d-4" value="&lt;font style=&quot;font-size: 13px;&quot;&gt;Customer_Address&lt;/font&gt;" style="ellipse;whiteSpace=wrap;html=1;strokeColor=#FFFFFF;" parent="1" vertex="1">
          <mxGeometry x="-914" y="-93" width="120" height="80" as="geometry" />
        </mxCell>
        <mxCell id="Bi1fVH9bBWvj0MdAsN5d-8" value="&lt;font style=&quot;font-size: 15px;&quot;&gt;Contact&lt;/font&gt;" style="ellipse;whiteSpace=wrap;html=1;strokeColor=#FFFFFF;" parent="1" vertex="1">
          <mxGeometry x="-940" y="-181" width="120" height="80" as="geometry" />
        </mxCell>
        <mxCell id="Bi1fVH9bBWvj0MdAsN5d-10" value="&lt;font style=&quot;font-size: 15px;&quot;&gt;Customer_Id&lt;/font&gt;" style="ellipse;whiteSpace=wrap;html=1;strokeColor=#FFFFFF;" parent="1" vertex="1">
          <mxGeometry x="-700" y="-93" width="120" height="80" as="geometry" />
        </mxCell>
        <mxCell id="Bi1fVH9bBWvj0MdAsN5d-14" value="" style="edgeStyle=orthogonalEdgeStyle;rounded=0;orthogonalLoop=1;jettySize=auto;html=1;strokeColor=#FFFFFF;" parent="1" source="Bi1fVH9bBWvj0MdAsN5d-11" target="Bi1fVH9bBWvj0MdAsN5d-13" edge="1">
          <mxGeometry relative="1" as="geometry" />
        </mxCell>
        <mxCell id="Bi1fVH9bBWvj0MdAsN5d-11" value="&lt;font style=&quot;font-size: 15px;&quot;&gt;MAKE&lt;/font&gt;" style="rhombus;whiteSpace=wrap;html=1;rounded=0;strokeColor=#FFFFFF;" parent="1" vertex="1">
          <mxGeometry x="-538" y="-5" width="80" height="80" as="geometry" />
        </mxCell>
        <mxCell id="Bi1fVH9bBWvj0MdAsN5d-16" value="" style="edgeStyle=orthogonalEdgeStyle;rounded=0;orthogonalLoop=1;jettySize=auto;html=1;strokeColor=#FFFFFF;" parent="1" source="Bi1fVH9bBWvj0MdAsN5d-13" target="Bi1fVH9bBWvj0MdAsN5d-15" edge="1">
          <mxGeometry relative="1" as="geometry" />
        </mxCell>
        <mxCell id="Bi1fVH9bBWvj0MdAsN5d-22" value="" style="edgeStyle=orthogonalEdgeStyle;rounded=0;orthogonalLoop=1;jettySize=auto;html=1;strokeColor=#FFFFFF;" parent="1" source="Bi1fVH9bBWvj0MdAsN5d-13" target="Bi1fVH9bBWvj0MdAsN5d-21" edge="1">
          <mxGeometry relative="1" as="geometry" />
        </mxCell>
        <mxCell id="2LKeGOVi453FV_1qw3CK-7" style="edgeStyle=orthogonalEdgeStyle;rounded=0;orthogonalLoop=1;jettySize=auto;html=1;strokeColor=#FFFFFF;" edge="1" parent="1" source="Bi1fVH9bBWvj0MdAsN5d-13" target="Bi1fVH9bBWvj0MdAsN5d-27">
          <mxGeometry relative="1" as="geometry" />
        </mxCell>
        <mxCell id="2LKeGOVi453FV_1qw3CK-11" style="edgeStyle=orthogonalEdgeStyle;rounded=0;orthogonalLoop=1;jettySize=auto;html=1;entryX=0;entryY=0.5;entryDx=0;entryDy=0;strokeColor=#FFFFFF;" edge="1" parent="1" source="Bi1fVH9bBWvj0MdAsN5d-13" target="Bi1fVH9bBWvj0MdAsN5d-28">
          <mxGeometry relative="1" as="geometry" />
        </mxCell>
        <mxCell id="Bi1fVH9bBWvj0MdAsN5d-13" value="&lt;font style=&quot;font-size: 19px;&quot;&gt;Order&lt;/font&gt;" style="whiteSpace=wrap;html=1;rounded=0;strokeColor=#FFFFFF;" parent="1" vertex="1">
          <mxGeometry x="-398" y="5" width="120" height="60" as="geometry" />
        </mxCell>
        <mxCell id="Bi1fVH9bBWvj0MdAsN5d-18" value="" style="edgeStyle=orthogonalEdgeStyle;rounded=0;orthogonalLoop=1;jettySize=auto;html=1;strokeColor=#FFFFFF;" parent="1" source="Bi1fVH9bBWvj0MdAsN5d-15" target="Bi1fVH9bBWvj0MdAsN5d-17" edge="1">
          <mxGeometry relative="1" as="geometry" />
        </mxCell>
        <mxCell id="Bi1fVH9bBWvj0MdAsN5d-15" value="&lt;font style=&quot;font-size: 15px;&quot;&gt;HAS&lt;/font&gt;" style="rhombus;whiteSpace=wrap;html=1;rounded=0;strokeColor=#FFFFFF;" parent="1" vertex="1">
          <mxGeometry x="-178" y="-5" width="80" height="80" as="geometry" />
        </mxCell>
        <mxCell id="2LKeGOVi453FV_1qw3CK-18" style="edgeStyle=orthogonalEdgeStyle;rounded=0;orthogonalLoop=1;jettySize=auto;html=1;strokeColor=#FFFFFF;" edge="1" parent="1" source="Bi1fVH9bBWvj0MdAsN5d-17" target="Bi1fVH9bBWvj0MdAsN5d-29">
          <mxGeometry relative="1" as="geometry" />
        </mxCell>
        <mxCell id="2LKeGOVi453FV_1qw3CK-19" style="edgeStyle=orthogonalEdgeStyle;rounded=0;orthogonalLoop=1;jettySize=auto;html=1;strokeColor=#FFFFFF;" edge="1" parent="1" source="Bi1fVH9bBWvj0MdAsN5d-17" target="Bi1fVH9bBWvj0MdAsN5d-30">
          <mxGeometry relative="1" as="geometry" />
        </mxCell>
        <mxCell id="Bi1fVH9bBWvj0MdAsN5d-17" value="&lt;font style=&quot;font-size: 14px;&quot;&gt;TRACKING&lt;/font&gt;" style="whiteSpace=wrap;html=1;rounded=0;strokeColor=#FFFFFF;" parent="1" vertex="1">
          <mxGeometry x="-38" y="5" width="120" height="60" as="geometry" />
        </mxCell>
        <mxCell id="Bi1fVH9bBWvj0MdAsN5d-35" value="" style="edgeStyle=orthogonalEdgeStyle;rounded=0;orthogonalLoop=1;jettySize=auto;html=1;strokeColor=#FFFFFF;" parent="1" source="Bi1fVH9bBWvj0MdAsN5d-21" target="Bi1fVH9bBWvj0MdAsN5d-34" edge="1">
          <mxGeometry relative="1" as="geometry" />
        </mxCell>
        <mxCell id="Bi1fVH9bBWvj0MdAsN5d-21" value="&lt;font style=&quot;font-size: 13px;&quot;&gt;CONTAINS&lt;/font&gt;" style="rhombus;whiteSpace=wrap;html=1;rounded=0;strokeColor=#FFFFFF;" parent="1" vertex="1">
          <mxGeometry x="-265" y="80" width="80" height="80" as="geometry" />
        </mxCell>
        <mxCell id="Bi1fVH9bBWvj0MdAsN5d-26" value="&lt;font style=&quot;font-size: 13px;&quot;&gt;ORDER_NO.&lt;/font&gt;" style="ellipse;whiteSpace=wrap;html=1;strokeColor=#FFFFFF;" parent="1" vertex="1">
          <mxGeometry x="-511" y="-103" width="120" height="80" as="geometry" />
        </mxCell>
        <mxCell id="Bi1fVH9bBWvj0MdAsN5d-27" value="&lt;font style=&quot;font-size: 13px;&quot;&gt;ORDER_DATE&lt;/font&gt;" style="ellipse;whiteSpace=wrap;html=1;strokeColor=#FFFFFF;" parent="1" vertex="1">
          <mxGeometry x="-398" y="-197" width="120" height="80" as="geometry" />
        </mxCell>
        <mxCell id="Bi1fVH9bBWvj0MdAsN5d-28" value="&lt;font style=&quot;font-size: 14px;&quot;&gt;AMOUNT&lt;/font&gt;" style="ellipse;whiteSpace=wrap;html=1;strokeColor=#FFFFFF;" parent="1" vertex="1">
          <mxGeometry x="-293" y="-109" width="120" height="80" as="geometry" />
        </mxCell>
        <mxCell id="Bi1fVH9bBWvj0MdAsN5d-29" value="&lt;font style=&quot;font-size: 13px;&quot;&gt;TRACKING_NO.&lt;/font&gt;" style="ellipse;whiteSpace=wrap;html=1;strokeColor=#FFFFFF;" parent="1" vertex="1">
          <mxGeometry x="-120" y="-115" width="120" height="80" as="geometry" />
        </mxCell>
        <mxCell id="Bi1fVH9bBWvj0MdAsN5d-30" value="&lt;font style=&quot;font-size: 13px;&quot;&gt;COURIER_NAME&lt;/font&gt;" style="ellipse;whiteSpace=wrap;html=1;strokeColor=#FFFFFF;" parent="1" vertex="1">
          <mxGeometry x="53" y="-115" width="120" height="80" as="geometry" />
        </mxCell>
        <mxCell id="Bi1fVH9bBWvj0MdAsN5d-33" value="&lt;span&gt;&lt;span&gt;&lt;font&gt;Entity Relationship Diagram&lt;/font&gt;&lt;/span&gt;&lt;/span&gt;" style="text;strokeColor=none;fillColor=none;html=1;fontSize=24;fontStyle=5;verticalAlign=middle;align=center;fontColor=#FFFFFF;" parent="1" vertex="1">
          <mxGeometry x="-476" y="-337" width="350" height="80" as="geometry" />
        </mxCell>
        <mxCell id="Bi1fVH9bBWvj0MdAsN5d-48" value="" style="edgeStyle=orthogonalEdgeStyle;rounded=0;orthogonalLoop=1;jettySize=auto;html=1;strokeColor=#FFFFFF;" parent="1" source="Bi1fVH9bBWvj0MdAsN5d-34" target="Bi1fVH9bBWvj0MdAsN5d-47" edge="1">
          <mxGeometry relative="1" as="geometry" />
        </mxCell>
        <mxCell id="2LKeGOVi453FV_1qw3CK-20" style="edgeStyle=orthogonalEdgeStyle;rounded=0;orthogonalLoop=1;jettySize=auto;html=1;entryX=0.5;entryY=1;entryDx=0;entryDy=0;strokeColor=#FFFFFF;" edge="1" parent="1" source="Bi1fVH9bBWvj0MdAsN5d-34" target="Bi1fVH9bBWvj0MdAsN5d-43">
          <mxGeometry relative="1" as="geometry" />
        </mxCell>
        <mxCell id="2LKeGOVi453FV_1qw3CK-22" style="edgeStyle=orthogonalEdgeStyle;rounded=0;orthogonalLoop=1;jettySize=auto;html=1;entryX=0.5;entryY=0;entryDx=0;entryDy=0;strokeColor=#FFFFFF;" edge="1" parent="1" source="Bi1fVH9bBWvj0MdAsN5d-34" target="Bi1fVH9bBWvj0MdAsN5d-41">
          <mxGeometry relative="1" as="geometry" />
        </mxCell>
        <mxCell id="2LKeGOVi453FV_1qw3CK-23" style="edgeStyle=orthogonalEdgeStyle;rounded=0;orthogonalLoop=1;jettySize=auto;html=1;strokeColor=#FFFFFF;" edge="1" parent="1" source="Bi1fVH9bBWvj0MdAsN5d-34" target="Bi1fVH9bBWvj0MdAsN5d-40">
          <mxGeometry relative="1" as="geometry" />
        </mxCell>
        <mxCell id="2LKeGOVi453FV_1qw3CK-26" style="edgeStyle=orthogonalEdgeStyle;rounded=0;orthogonalLoop=1;jettySize=auto;html=1;entryX=0.5;entryY=0;entryDx=0;entryDy=0;strokeColor=#FFFFFF;" edge="1" parent="1" source="Bi1fVH9bBWvj0MdAsN5d-34" target="Bi1fVH9bBWvj0MdAsN5d-42">
          <mxGeometry relative="1" as="geometry" />
        </mxCell>
        <mxCell id="Bi1fVH9bBWvj0MdAsN5d-34" value="&lt;font style=&quot;font-size: 15px;&quot;&gt;PRODUCT&lt;/font&gt;" style="whiteSpace=wrap;html=1;rounded=0;strokeColor=#FFFFFF;" parent="1" vertex="1">
          <mxGeometry x="57" y="285" width="125" height="60" as="geometry" />
        </mxCell>
        <mxCell id="Bi1fVH9bBWvj0MdAsN5d-40" value="PRODUCT_PRICE" style="ellipse;whiteSpace=wrap;html=1;strokeColor=#FFFFFF;" parent="1" vertex="1">
          <mxGeometry x="297" y="128" width="120" height="80" as="geometry" />
        </mxCell>
        <mxCell id="Bi1fVH9bBWvj0MdAsN5d-41" value="PRODUCT_STATUS" style="ellipse;whiteSpace=wrap;html=1;strokeColor=#FFFFFF;" parent="1" vertex="1">
          <mxGeometry x="185" y="350" width="120" height="80" as="geometry" />
        </mxCell>
        <mxCell id="Bi1fVH9bBWvj0MdAsN5d-42" value="PRODUCT_NAME" style="ellipse;whiteSpace=wrap;html=1;strokeColor=#FFFFFF;" parent="1" vertex="1">
          <mxGeometry x="297" y="422" width="120" height="80" as="geometry" />
        </mxCell>
        <mxCell id="Bi1fVH9bBWvj0MdAsN5d-43" value="PRODUCT_ID" style="ellipse;whiteSpace=wrap;html=1;strokeColor=#FFFFFF;" parent="1" vertex="1">
          <mxGeometry x="185" y="200" width="120" height="80" as="geometry" />
        </mxCell>
        <mxCell id="Bi1fVH9bBWvj0MdAsN5d-50" value="" style="edgeStyle=orthogonalEdgeStyle;rounded=0;orthogonalLoop=1;jettySize=auto;html=1;strokeColor=#FFFFFF;" parent="1" source="Bi1fVH9bBWvj0MdAsN5d-47" target="Bi1fVH9bBWvj0MdAsN5d-49" edge="1">
          <mxGeometry relative="1" as="geometry" />
        </mxCell>
        <mxCell id="Bi1fVH9bBWvj0MdAsN5d-47" value="SUPPLIES" style="rhombus;whiteSpace=wrap;html=1;rounded=0;strokeColor=#FFFFFF;" parent="1" vertex="1">
          <mxGeometry x="79.5" y="413" width="80" height="80" as="geometry" />
        </mxCell>
        <mxCell id="2LKeGOVi453FV_1qw3CK-29" style="edgeStyle=orthogonalEdgeStyle;rounded=0;orthogonalLoop=1;jettySize=auto;html=1;strokeColor=#FFFFFF;" edge="1" parent="1" source="Bi1fVH9bBWvj0MdAsN5d-49" target="Bi1fVH9bBWvj0MdAsN5d-72">
          <mxGeometry relative="1" as="geometry" />
        </mxCell>
        <mxCell id="2LKeGOVi453FV_1qw3CK-30" style="edgeStyle=orthogonalEdgeStyle;rounded=0;orthogonalLoop=1;jettySize=auto;html=1;entryX=1;entryY=0.5;entryDx=0;entryDy=0;strokeColor=#FFFFFF;" edge="1" parent="1" source="Bi1fVH9bBWvj0MdAsN5d-49" target="Bi1fVH9bBWvj0MdAsN5d-74">
          <mxGeometry relative="1" as="geometry" />
        </mxCell>
        <mxCell id="2LKeGOVi453FV_1qw3CK-33" style="edgeStyle=orthogonalEdgeStyle;rounded=0;orthogonalLoop=1;jettySize=auto;html=1;entryX=0;entryY=0.5;entryDx=0;entryDy=0;strokeColor=#FFFFFF;" edge="1" parent="1" source="Bi1fVH9bBWvj0MdAsN5d-49" target="Bi1fVH9bBWvj0MdAsN5d-73">
          <mxGeometry relative="1" as="geometry" />
        </mxCell>
        <mxCell id="Bi1fVH9bBWvj0MdAsN5d-49" value="SUPPLIER" style="whiteSpace=wrap;html=1;rounded=0;strokeColor=#FFFFFF;" parent="1" vertex="1">
          <mxGeometry x="-380" y="422" width="120" height="60" as="geometry" />
        </mxCell>
        <mxCell id="Bi1fVH9bBWvj0MdAsN5d-53" value="" style="edgeStyle=orthogonalEdgeStyle;rounded=0;orthogonalLoop=1;jettySize=auto;html=1;strokeColor=#FFFFFF;" parent="1" source="Bi1fVH9bBWvj0MdAsN5d-51" target="Bi1fVH9bBWvj0MdAsN5d-52" edge="1">
          <mxGeometry relative="1" as="geometry" />
        </mxCell>
        <mxCell id="Bi1fVH9bBWvj0MdAsN5d-84" style="edgeStyle=orthogonalEdgeStyle;rounded=0;orthogonalLoop=1;jettySize=auto;html=1;exitX=0;exitY=0.5;exitDx=0;exitDy=0;strokeColor=#FFFFFF;" parent="1" source="Bi1fVH9bBWvj0MdAsN5d-51" target="Bi1fVH9bBWvj0MdAsN5d-81" edge="1">
          <mxGeometry relative="1" as="geometry" />
        </mxCell>
        <mxCell id="2LKeGOVi453FV_1qw3CK-35" style="edgeStyle=orthogonalEdgeStyle;rounded=0;orthogonalLoop=1;jettySize=auto;html=1;entryX=0.5;entryY=0;entryDx=0;entryDy=0;strokeColor=#FFFFFF;" edge="1" parent="1" source="Bi1fVH9bBWvj0MdAsN5d-51" target="Bi1fVH9bBWvj0MdAsN5d-80">
          <mxGeometry relative="1" as="geometry" />
        </mxCell>
        <mxCell id="2LKeGOVi453FV_1qw3CK-36" style="edgeStyle=orthogonalEdgeStyle;rounded=0;orthogonalLoop=1;jettySize=auto;html=1;entryX=0.5;entryY=1;entryDx=0;entryDy=0;strokeColor=#FFFFFF;" edge="1" parent="1" source="Bi1fVH9bBWvj0MdAsN5d-51" target="Bi1fVH9bBWvj0MdAsN5d-82">
          <mxGeometry relative="1" as="geometry" />
        </mxCell>
        <object label="&lt;font style=&quot;font-size: 21px;&quot;&gt;ADMIN&lt;/font&gt;" CUSTOMER="CUSTOmER" id="Bi1fVH9bBWvj0MdAsN5d-51">
          <mxCell style="rounded=0;whiteSpace=wrap;html=1;strokeColor=#FFFFFF;" parent="1" vertex="1">
            <mxGeometry x="-833" y="280" width="170" height="70" as="geometry" />
          </mxCell>
        </object>
        <mxCell id="Bi1fVH9bBWvj0MdAsN5d-57" value="" style="edgeStyle=orthogonalEdgeStyle;rounded=0;orthogonalLoop=1;jettySize=auto;html=1;strokeColor=#FFFFFF;" parent="1" source="Bi1fVH9bBWvj0MdAsN5d-52" target="Bi1fVH9bBWvj0MdAsN5d-56" edge="1">
          <mxGeometry relative="1" as="geometry" />
        </mxCell>
        <mxCell id="Bi1fVH9bBWvj0MdAsN5d-52" value="&lt;font style=&quot;font-size: 13px;&quot;&gt;MANAGE&lt;/font&gt;" style="rhombus;whiteSpace=wrap;html=1;rounded=0;strokeColor=#FFFFFF;" parent="1" vertex="1">
          <mxGeometry x="-610" y="275" width="80" height="80" as="geometry" />
        </mxCell>
        <mxCell id="Bi1fVH9bBWvj0MdAsN5d-59" value="" style="edgeStyle=orthogonalEdgeStyle;rounded=0;orthogonalLoop=1;jettySize=auto;html=1;strokeColor=#FFFFFF;" parent="1" source="Bi1fVH9bBWvj0MdAsN5d-56" target="Bi1fVH9bBWvj0MdAsN5d-58" edge="1">
          <mxGeometry relative="1" as="geometry" />
        </mxCell>
        <mxCell id="Bi1fVH9bBWvj0MdAsN5d-86" style="edgeStyle=orthogonalEdgeStyle;rounded=0;orthogonalLoop=1;jettySize=auto;html=1;exitX=0.5;exitY=0;exitDx=0;exitDy=0;strokeColor=#FFFFFF;" parent="1" source="Bi1fVH9bBWvj0MdAsN5d-56" target="Bi1fVH9bBWvj0MdAsN5d-87" edge="1">
          <mxGeometry relative="1" as="geometry">
            <mxPoint x="-425.3333333333335" y="235" as="targetPoint" />
          </mxGeometry>
        </mxCell>
        <mxCell id="Bi1fVH9bBWvj0MdAsN5d-56" value="ONLINE Shopping APP" style="whiteSpace=wrap;html=1;rounded=0;strokeColor=#FFFFFF;" parent="1" vertex="1">
          <mxGeometry x="-485" y="285" width="120" height="60" as="geometry" />
        </mxCell>
        <mxCell id="Bi1fVH9bBWvj0MdAsN5d-62" value="" style="edgeStyle=orthogonalEdgeStyle;rounded=0;orthogonalLoop=1;jettySize=auto;html=1;strokeColor=#FFFFFF;" parent="1" source="Bi1fVH9bBWvj0MdAsN5d-58" target="Bi1fVH9bBWvj0MdAsN5d-61" edge="1">
          <mxGeometry relative="1" as="geometry" />
        </mxCell>
        <mxCell id="Bi1fVH9bBWvj0MdAsN5d-58" value="HAS" style="rhombus;whiteSpace=wrap;html=1;rounded=0;strokeColor=#FFFFFF;" parent="1" vertex="1">
          <mxGeometry x="-303" y="276" width="80" height="80" as="geometry" />
        </mxCell>
        <mxCell id="Bi1fVH9bBWvj0MdAsN5d-66" value="" style="edgeStyle=orthogonalEdgeStyle;rounded=0;orthogonalLoop=1;jettySize=auto;html=1;strokeColor=#FFFFFF;" parent="1" source="Bi1fVH9bBWvj0MdAsN5d-61" target="Bi1fVH9bBWvj0MdAsN5d-65" edge="1">
          <mxGeometry relative="1" as="geometry" />
        </mxCell>
        <mxCell id="2LKeGOVi453FV_1qw3CK-24" style="edgeStyle=orthogonalEdgeStyle;rounded=0;orthogonalLoop=1;jettySize=auto;html=1;entryX=0.5;entryY=1;entryDx=0;entryDy=0;strokeColor=#FFFFFF;" edge="1" parent="1" source="Bi1fVH9bBWvj0MdAsN5d-61" target="Bi1fVH9bBWvj0MdAsN5d-88">
          <mxGeometry relative="1" as="geometry" />
        </mxCell>
        <mxCell id="2LKeGOVi453FV_1qw3CK-25" style="edgeStyle=orthogonalEdgeStyle;rounded=0;orthogonalLoop=1;jettySize=auto;html=1;entryX=0.5;entryY=1;entryDx=0;entryDy=0;strokeColor=#FFFFFF;" edge="1" parent="1" source="Bi1fVH9bBWvj0MdAsN5d-61" target="Bi1fVH9bBWvj0MdAsN5d-90">
          <mxGeometry relative="1" as="geometry" />
        </mxCell>
        <mxCell id="Bi1fVH9bBWvj0MdAsN5d-61" value="PRODUCT CATEGORY" style="whiteSpace=wrap;html=1;rounded=0;strokeColor=#FFFFFF;" parent="1" vertex="1">
          <mxGeometry x="-185" y="286" width="120" height="60" as="geometry" />
        </mxCell>
        <mxCell id="Bi1fVH9bBWvj0MdAsN5d-67" value="" style="edgeStyle=orthogonalEdgeStyle;rounded=0;orthogonalLoop=1;jettySize=auto;html=1;strokeColor=#FFFFFF;" parent="1" source="Bi1fVH9bBWvj0MdAsN5d-65" target="Bi1fVH9bBWvj0MdAsN5d-34" edge="1">
          <mxGeometry relative="1" as="geometry" />
        </mxCell>
        <mxCell id="Bi1fVH9bBWvj0MdAsN5d-65" value="HAS" style="rhombus;whiteSpace=wrap;html=1;rounded=0;strokeColor=#FFFFFF;" parent="1" vertex="1">
          <mxGeometry x="-44" y="275" width="80" height="80" as="geometry" />
        </mxCell>
        <mxCell id="Bi1fVH9bBWvj0MdAsN5d-72" value="&lt;font style=&quot;font-size: 13px;&quot;&gt;Supplier_Address&lt;/font&gt;" style="ellipse;whiteSpace=wrap;html=1;strokeColor=#FFFFFF;" parent="1" vertex="1">
          <mxGeometry x="-380" y="575" width="120" height="80" as="geometry" />
        </mxCell>
        <mxCell id="Bi1fVH9bBWvj0MdAsN5d-73" value="&lt;font style=&quot;font-size: 13px;&quot;&gt;Supplier_Name&lt;/font&gt;" style="ellipse;whiteSpace=wrap;html=1;strokeColor=#FFFFFF;" parent="1" vertex="1">
          <mxGeometry x="-270" y="495" width="120" height="80" as="geometry" />
        </mxCell>
        <mxCell id="Bi1fVH9bBWvj0MdAsN5d-74" value="&lt;font style=&quot;font-size: 13px;&quot;&gt;Supplier_Id&lt;/font&gt;" style="ellipse;whiteSpace=wrap;html=1;strokeColor=#FFFFFF;" parent="1" vertex="1">
          <mxGeometry x="-490" y="495" width="120" height="80" as="geometry" />
        </mxCell>
        <mxCell id="Bi1fVH9bBWvj0MdAsN5d-80" value="ADMIN_ROLE" style="ellipse;whiteSpace=wrap;html=1;strokeColor=#FFFFFF;" parent="1" vertex="1">
          <mxGeometry x="-956" y="378" width="120" height="80" as="geometry" />
        </mxCell>
        <mxCell id="Bi1fVH9bBWvj0MdAsN5d-81" value="ADMIN_NAME" style="ellipse;whiteSpace=wrap;html=1;strokeColor=#FFFFFF;" parent="1" vertex="1">
          <mxGeometry x="-1089" y="275" width="120" height="80" as="geometry" />
        </mxCell>
        <mxCell id="Bi1fVH9bBWvj0MdAsN5d-82" value="ADMIN_ID" style="ellipse;whiteSpace=wrap;html=1;strokeColor=#FFFFFF;" parent="1" vertex="1">
          <mxGeometry x="-956" y="165" width="120" height="80" as="geometry" />
        </mxCell>
        <mxCell id="Bi1fVH9bBWvj0MdAsN5d-87" value="APP" style="ellipse;whiteSpace=wrap;html=1;strokeColor=#FFFFFF;" parent="1" vertex="1">
          <mxGeometry x="-485.0033333333335" y="155" width="120" height="80" as="geometry" />
        </mxCell>
        <mxCell id="Bi1fVH9bBWvj0MdAsN5d-88" value="PRODUCT_ID" style="ellipse;whiteSpace=wrap;html=1;strokeColor=#FFFFFF;" parent="1" vertex="1">
          <mxGeometry x="-260" y="190" width="110" height="55" as="geometry" />
        </mxCell>
        <mxCell id="Bi1fVH9bBWvj0MdAsN5d-90" value="PRODUCT_NAME" style="ellipse;whiteSpace=wrap;html=1;strokeColor=#FFFFFF;" parent="1" vertex="1">
          <mxGeometry x="-123" y="190" width="110" height="55" as="geometry" />
        </mxCell>
        <mxCell id="2LKeGOVi453FV_1qw3CK-10" style="edgeStyle=orthogonalEdgeStyle;rounded=0;orthogonalLoop=1;jettySize=auto;html=1;entryX=0.993;entryY=0.417;entryDx=0;entryDy=0;entryPerimeter=0;strokeColor=#FFFFFF;" edge="1" parent="1" source="Bi1fVH9bBWvj0MdAsN5d-13" target="Bi1fVH9bBWvj0MdAsN5d-26">
          <mxGeometry relative="1" as="geometry" />
        </mxCell>
      </root>
    </mxGraphModel>
  </diagram>
</mxfile>
